<svg xmlns="http://www.w3.org/2000/svg" viewBox="0 0 100 100">
  <rect width="100" height="100" rx="20" fill="#0d9488"/>
  <path d="M50 22c-8 0-14 6-14 14v4h-6c-3 0-5 2-5 5v32c0 3 2 5 5 5h40c3 0 5-2 5-5V45c0-3-2-5-5-5h-6v-4c0-8-6-14-14-14zm0 8c3 0 6 3 6 6v4H44v-4c0-3 3-6 6-6z" fill="#fff"/>
  <circle cx="38" cy="58" r="4" fill="#0d9488"/>
  <circle cx="62" cy="58" r="4" fill="#0d9488"/>
  <path d="M42 68c3 4 13 4 16 0" stroke="#0d9488" stroke-width="3" fill="none" stroke-linecap="round"/>
</svg>
